<!-- Generated by IcoMoon.io -->
<svg version="1.1" xmlns="http://www.w3.org/2000/svg" width="476" height="512" viewBox="0 0 476 512">
<title></title>
<g id="icomoon-ignore">
</g>
<path fill="#000" d="M460.286 237.714c0 9.714-4 19.143-10.572 25.714l-186 186.286c-6.857 6.572-16.286 10.572-26 10.572s-19.143-4-25.714-10.572l-186-186.286c-6.857-6.572-10.857-16-10.857-25.714s4-19.143 10.857-26l21.143-21.428c6.857-6.572 16.285-10.572 26-10.572s19.143 4 25.715 10.572l84 84v-201.143c0-20 16.572-36.572 36.572-36.572h36.572c20 0 36.572 16.572 36.572 36.572v201.143l84-84c6.572-6.572 16-10.572 25.714-10.572s19.143 4 26 10.572l21.428 21.428c6.572 6.857 10.572 16.286 10.572 26z"></path>
</svg>
