<!-- Generated by IcoMoon.io -->
<svg version="1.1" xmlns="http://www.w3.org/2000/svg" width="704" height="1024" viewBox="0 0 704 1024">
<title></title>
<g id="icomoon-ignore">
</g>
<path d="M352 0c-169.28 0-352 134.592-352 352 0 107.296 42.688 197.568 124.672 265.984 0.864 1.088 1.856 2.016 2.944 2.816 60.832 65.984 63.904 78.528 64.32 107.552 0.192 11.488 0.096 14.88 0 16.736l-0.128 6.688c-0.48 14.464-1.216 38.688 28.768 47.84l259.008 56.992c1.152 0.256 2.304 0.384 3.424 0.384 7.36 0 13.984-5.088 15.616-12.576 1.92-8.64-3.552-17.184-12.192-19.072l-257.76-56.672c-4.96-1.504-5.376-1.632-4.928-15.936l0.096-6.112c0 0 0.32-2.496 0.064-18.752-0.608-40.608-9.44-60.224-73.888-129.888-1.248-1.536-2.752-2.816-4.416-3.776-75.392-64.096-113.6-145.568-113.6-242.208 0-197.664 166.080-320 320-320 157.312 0 320 119.712 320 320 0 127.296-61.696 197.472-112.576 241.632-1.76 0.832-3.328 2.016-4.704 3.488-65.184 70.528-74.016 90.144-74.624 130.752 0 0.96-0.032 2.080 0 3.296l-0.032 1.12c-0.096 2.432-0.448 3.776-0.416 4.288-1.088-0.16-3.744-0.576-3.744-0.576l-134.24-31.584c-8.704-1.984-17.216 3.328-19.232 11.904-2.016 8.608 3.296 17.216 11.904 19.264l132.608 31.104c1.76 0.64 17.696 5.824 31.136-3.616 5.856-4.128 12.672-12.224 13.888-27.712l0.096-1.504c0.032-1.024 0.064-2.080 0.064-3.168 0-0.288 0-0.576-0.032-0.832l0.032-1.472c0.416-28.864 3.424-41.408 64.16-107.392 0.288-0.224 0.608-0.448 0.864-0.704 85.344-71.712 126.848-159.488 126.848-268.288 0-220.32-178.976-352-352-352zM480 944c7.328 0 13.92-5.024 15.584-12.48 1.984-8.608-3.424-17.184-12.064-19.136l-256-58.048c-8.672-1.92-17.184 3.456-19.136 12.064-1.984 8.608 3.424 17.184 12.064 19.136l256 58.048c1.216 0.288 2.4 0.416 3.552 0.416zM243.488 945.728c-8.672-1.92-17.152 3.488-19.136 12.096-1.92 8.64 3.488 17.184 12.128 19.104l208 46.656c1.216 0.288 2.368 0.416 3.52 0.416 7.328 0 13.952-5.056 15.616-12.512 1.92-8.64-3.488-17.184-12.128-19.104l-208-46.656z"></path>
</svg>
