<!-- Generated by IcoMoon.io -->
<svg version="1.1" xmlns="http://www.w3.org/2000/svg" width="1536" height="1536" viewBox="0 0 1536 1536">
<title></title>
<g id="icomoon-ignore">
</g>
<path d="M1440 769.599c0-191.040-138.561-349.761-320.319-380.16-5.442-216-182.4-389.439-399.681-389.439-220.8 0-399.999 179.199-399.999 399.999v496.002c0 88.32-71.679 159.999-159.999 159.999h-16.002c-44.16 0-80.001 35.841-80.001 80.001s35.841 79.998 80.001 79.998h15.999c176.64 0 320.001-143.361 320.001-320.001v-495.999c0-132.48 107.52-240 240-240 131.199 0 238.047 105.279 240 236.16-165.759 42.879-288 193.92-288 373.44v380.799c0 212.802 171.84 385.602 384 385.602s384-172.8 384-385.599v-380.802zM1119.999 608.001v192c0 35.199-28.8 63.999-63.999 63.999s-63.999-28.8-63.999-63.999v-192c0-35.199 28.8-63.999 63.999-63.999s63.999 28.797 63.999 63.999z"></path>
</svg>
