<!-- Generated by IcoMoon.io -->
<svg version="1.1" xmlns="http://www.w3.org/2000/svg" width="704" height="1024" viewBox="0 0 704 1024">
<title></title>
<g id="icomoon-ignore">
</g>
<path d="M492.896 672h146.56c33.696 0 61.088-27.392 64.544-61.088v-549.824c-3.456-33.696-30.848-61.088-64.544-61.088h-574.912c-33.696 0-61.088 27.392-64.544 61.088v549.824c3.456 33.696 30.848 61.088 64.544 61.088h158.784c11.136 0 66.656 2.368 66.656 49.344 0 83.904-17.696 122.944-24.384 137.664l-1.568 3.488 12.896 5.568v0.416l-14.304-2.88c-0.544 1.056-0.96 2.176-1.216 3.328-4.928 13.152-7.424 26.656-7.424 40.224 0.032 68.704 39.392 114.848 98.016 114.848 59.232 0 99.008-46.144 99.008-114.848 0-12.512-2.112-24.96-6.336-37.152-0.16-3.648-1.568-7.040-3.808-9.664-0.832-1.92-1.92-4-3.232-6.464-7.008-13.28-21.632-40.864-21.632-134.528 0-19.84 20.48-49.344 76.896-49.344zM32 385.888h640v126.112h-640v-126.112zM64.544 32h574.912c16.032 0 29.088 13.056 32.544 29.088v292.768h-640v-292.768c3.456-16.032 16.512-29.088 32.544-29.088zM409.344 870.848c0.896 1.696 1.664 3.104 2.976 6.048 0 0.032 0.096 0.224 0.224 0.512 0.128 0.416 0.256 0.8 0.416 1.216 4 10.016 6.016 20.32 6.016 30.528 0.032 40.064-17.568 82.848-66.976 82.848-48.672 0-65.984-42.784-65.984-82.848 0-10.208 2.016-20.512 6.016-30.528 0.128-0.384 0.288-0.736 0.384-1.12 0.448-0.96 0.992-2.176 1.056-2.304l1.344-2.976c7.424-16.448 27.232-60.032 27.232-150.88-0.064-64.224-62.048-81.344-99.648-81.344 0 0 0 0-0.032 0h-157.824c-16.032 0-29.088-13.056-32.544-29.088v-66.912h640v66.912c-3.456 16.032-16.512 29.088-32.544 29.088h-146.56c-79.904 0-108.896 48.672-108.896 81.344 0 101.6 17.12 133.984 25.344 149.504z"></path>
</svg>
