<!-- Generated by IcoMoon.io -->
<svg version="1.1" xmlns="http://www.w3.org/2000/svg" width="1024" height="1024" viewBox="0 0 1024 1024">
<title></title>
<g id="icomoon-ignore">
</g>
<path d="M816 928c61.76 0 112-50.24 112-112s-50.24-112-112-112-112 50.24-112 112 50.24 112 112 112zM816 736c44.096 0 80 35.872 80 80s-35.904 80-80 80-80-35.872-80-80 35.904-80 80-80zM599.424 766.4c0 46.432 11.424 104.672 26.752 137.632 31.36 79.584 93.056 119.968 183.424 119.968 118.208 0 214.4-96.192 214.4-214.4 0-114.976-90.176-198.4-214.4-198.4-141.216 0-187.296-75.872-189.12-79.008-0.64-1.088-1.376-2.112-2.24-3.040l-491.36-524.096c-4.48-4.768-11.456-6.304-17.568-3.936-6.080 2.4-10.112 8.32-10.112 14.88 0 308.832 205.952 470.88 356.32 589.152 80.416 63.264 143.904 113.184 143.904 161.248zM132.608 57.952l461.184 491.904c8.576 13.568 65.408 93.344 215.808 93.344 105.696 0 182.4 69.984 182.4 166.4 0 100.608-81.824 182.4-182.4 182.4-76.96 0-127.232-32.64-154.016-100.608-11.712-25.152-24.16-77.536-24.16-124.992 0-63.584-68.896-117.792-156.096-186.4-138.144-108.672-324.864-255.52-342.72-522.048zM96 816c0 61.76 50.24 112 112 112s112-50.24 112-112-50.24-112-112-112-112 50.24-112 112zM288 816c0 44.128-35.904 80-80 80s-80-35.872-80-80 35.904-80 80-80 80 35.872 80 80zM660.288 495.072c-6.528 5.952-7.008 16.064-1.056 22.592 3.168 3.456 7.488 5.216 11.84 5.216 3.84 0 7.712-1.376 10.784-4.192 113.12-103.040 242.944-253.28 242.944-502.688 0-6.56-4-12.48-10.112-14.88-6.080-2.336-13.056-0.832-17.568 3.936l-349.44 372.672c-6.048 6.432-5.728 16.576 0.736 22.592 6.432 6.016 16.544 5.76 22.624-0.704l320.448-341.76c-13.632 212.16-129.472 344.512-231.2 437.216zM349.152 604.672c8.224-3.2 12.32-12.448 9.152-20.672s-12.48-12.384-20.704-9.12c-6.752 2.624-14.048 5.856-21.888 9.344-27.008 12-60.64 26.976-101.312 26.976-124.224 0-214.4 83.424-214.4 198.4 0 118.208 96.192 214.4 214.4 214.4 90.368 0 152.064-40.384 183.008-119.104 16.192-34.72 18.592-110.72 18.592-152.896 0-8.608 24.384-26.976 38.976-37.952 13.472-10.112 27.392-20.608 36.992-31.424 5.856-6.624 5.248-16.736-1.344-22.592-6.592-5.888-16.736-5.248-22.592 1.344-7.488 8.48-20.096 17.952-32.32 27.136-26.592 20.032-51.712 38.912-51.712 63.488 0 66.304-5.824 118.432-15.968 140.288-26.4 67.072-76.672 99.712-153.632 99.712-100.576 0-182.4-81.824-182.4-182.4 0-96.448 76.704-166.4 182.4-166.4 47.488 0 86.112-17.216 114.336-29.792 7.296-3.264 14.112-6.272 20.416-8.736zM486.208 543.488c0 14.245 11.547 25.792 25.792 25.792s25.792-11.547 25.792-25.792c0-14.245-11.547-25.792-25.792-25.792s-25.792 11.547-25.792 25.792z"></path>
</svg>
