<!-- Generated by IcoMoon.io -->
<svg version="1.1" xmlns="http://www.w3.org/2000/svg" width="1024" height="1024" viewBox="0 0 1024 1024">
<title></title>
<g id="icomoon-ignore">
</g>
<path d="M907.328 43.328c3.68-3.68 5.344-8.928 4.448-14.048s-4.224-9.504-8.96-11.712c-73.312-34.56-160.32-19.392-217.536 38.112-54.336 54.688-73.312 140.576-47.968 212.384l-369.248 369.248c-20.064-7.168-41.504-10.752-63.872-10.752-54.848 0-108.032 21.824-145.888 59.904-57.024 57.344-73.088 142.080-40.992 215.904 2.112 4.864 6.496 8.384 11.712 9.344 5.248 0.992 10.592-0.672 14.304-4.448l111.712-112.288c7.36-7.424 19.232-8.416 25.376-2.176l48.224 50.464c7.008 7.072 6.688 17.984-0.704 25.44l-111.296 112c-3.68 3.68-5.312 8.928-4.416 14.048s4.224 9.472 8.928 11.68c26.528 12.512 54.432 18.816 82.912 18.816 50.304 0 98.080-20.224 134.624-56.96 54.336-54.656 73.312-140.544 47.936-212.352l369.248-369.28c20.096 7.168 41.536 10.752 63.904 10.752 54.848 0 108.032-21.824 145.888-59.904 57.024-57.344 73.088-142.080 40.992-215.904-2.112-4.864-6.496-8.384-11.712-9.344-5.152-0.896-10.56 0.672-14.304 4.448l-111.712 112.288c-6.88 6.912-18.56 6.848-25.632-0.32l-47.968-47.968c-7.232-7.264-7.2-18.176-0.032-25.408l112.032-111.968zM772.672 203.328l47.968 47.968c19.168 19.264 52 19.36 70.976 0.288l93.76-94.208c15.008 55.712-0.512 115.488-42.368 157.632-31.904 32.096-76.768 50.464-123.2 50.464-21.856 0-42.56-4.096-61.536-12.16-6.016-2.592-12.96-1.184-17.568 3.392l-384 384c-4.608 4.608-5.952 11.52-3.424 17.504 25.696 61.12 10.048 140-37.216 187.552-42.272 42.496-103.808 57.632-159.52 40.256l94.112-94.72c19.872-20 20.192-51.008 0.928-70.336l-48.192-50.464c-18.592-18.72-51.648-17.568-70.976 1.984l-93.76 94.208c-15.008-55.712 0.512-115.488 42.368-157.632 31.904-32.096 76.768-50.464 123.2-50.464 21.856 0 42.56 4.096 61.536 12.16 5.984 2.624 12.96 1.184 17.568-3.392l384-384c4.608-4.608 5.952-11.52 3.424-17.504-25.696-61.12-10.048-140.032 37.216-187.584 42.24-42.496 103.744-57.536 159.424-40.256l-94.72 94.752c-19.712 19.744-19.712 50.72 0 70.56zM934.72 980.704c-7.072 7.104-19.328 7.104-26.464-0.064l-320.96-320c-6.24-6.176-16.384-6.208-22.624 0.064-6.24 6.24-6.208 16.384 0.032 22.624l320.928 319.936c9.6 9.632 22.336 14.944 35.904 14.944 0 0 0 0 0 0 13.568 0 26.304-5.312 36.096-15.168l45.728-47.776c19.68-19.776 19.68-50.784-0.032-70.592l-320-320c-6.24-6.24-16.384-6.24-22.624 0s-6.24 16.384 0 22.624l319.968 319.968c7.328 7.36 7.328 18.048-0.224 25.664l-45.728 47.776zM187.328 100.672l-96-96c-6.24-6.24-16.384-6.24-22.624 0l-64 64c-6.24 6.24-6.24 16.384 0 22.624l96 96c3.104 3.136 7.2 4.704 11.296 4.704s8.192-1.568 11.328-4.672l20.672-20.704 244.672 244.672c3.136 3.136 7.232 4.704 11.328 4.704s8.192-1.568 11.328-4.672c6.24-6.24 6.24-16.384 0-22.624l-244.704-244.704 20.672-20.672c6.272-6.272 6.272-16.384 0.032-22.656zM112 153.376l-73.376-73.376 41.376-41.376 73.376 73.376-41.376 41.376z"></path>
</svg>
